PathFileType  4	(X/Y/Z) D:\Research_projects\MuscleProsody\BulkSports2Dtrack\RetrackedSports2D\p1_sample60_cam2\p1_sample60_cam2_Sports2D\pose-3d
DataRate	CameraRate	NumFrames	NumMarkers	Units	OrigDataRate	OrigDataStartFrame	OrigNumFrames
60.0	60.0	10	22	m	60.0	0	780
Frame#	Time	Hip			RHip			RKnee			RAnkle			RBigToe			RSmallToe			RHeel			LHip			LKnee			LAnkle			LBigToe			LSmallToe			LHeel			Neck			Head			Nose			RShoulder			RElbow			RWrist			LShoulder			LElbow			LWrist			
		X1	Y1	Z1	X2	Y2	Z2	X3	Y3	Z3	X4	Y4	Z4	X5	Y5	Z5	X6	Y6	Z6	X7	Y7	Z7	X8	Y8	Z8	X9	Y9	Z9	X10	Y10	Z10	X11	Y11	Z11	X12	Y12	Z12	X13	Y13	Z13	X14	Y14	Z14	X15	Y15	Z15	X16	Y16	Z16	X17	Y17	Z17	X18	Y18	Z18	X19	Y19	Z19	X20	Y20	Z20	X21	Y21	Z21	X22	Y22	Z22	

1	0.0000000	0.8323279	0.8584565	0.0301000	0.7412338	0.8526854	0.0301000	0.7458601	0.4673456	0.1290000	0.7660187	0.1301322	0.0230000	0.7775797	-0.0033740	0.2179000	0.7230904	0.0210203	0.1804000	0.7872214	0.1057758	-0.0119000	0.9263989	0.8489925	0.0301000	0.9159487	0.4605846	0.1290000	0.9177769	0.1265634	0.0230000	0.8870075	-0.0038110	0.2179000	0.9538503	0.0141366	0.1804000	0.9116821	0.1143544	-0.0119000	0.8558922	1.5137292	0.0008000	0.8540518	1.8053303	0.0655000	0.8107768	1.6293597	0.1076000	0.6732406	1.3899875	-0.0127500	0.6268444	1.1139902	0.0702000	0.5833982	0.8377574	0.1076000	1.0497520	1.3946321	-0.0127500	1.0911449	1.1002180	0.0702000	1.1114554	0.8207710	0.1076000
2	0.0166667	0.8319532	0.8591006	0.0301000	0.7408945	0.8514493	0.0301000	0.7456537	0.4675492	0.1290000	0.7660569	0.1301614	0.0230000	0.7764164	-0.0032949	0.2179000	0.7212921	0.0208436	0.1804000	0.7865271	0.1058194	-0.0119000	0.9253829	0.8476374	0.0301000	0.9158345	0.4605648	0.1290000	0.9182448	0.1269872	0.0230000	0.8875270	-0.0029656	0.2179000	0.9536630	0.0143195	0.1804000	0.9124684	0.1134150	-0.0119000	0.8560898	1.5135559	0.0008000	0.8545702	1.8047884	0.0655000	0.8103686	1.6298423	0.1076000	0.6741541	1.3904073	-0.0127500	0.6272514	1.1131651	0.0702000	0.5832959	0.8381768	0.1076000	1.0494208	1.3947581	-0.0127500	1.0904074	1.0995409	0.0702000	1.1118575	0.8205672	0.1076000
3	0.0333333	0.8316232	0.8596622	0.0301000	0.7405924	0.8502412	0.0301000	0.7454643	0.4677056	0.1290000	0.7660776	0.1302014	0.0230000	0.7753255	-0.0032399	0.2179000	0.7196164	0.0206821	0.1804000	0.7858562	0.1058543	-0.0119000	0.9244615	0.8463318	0.0301000	0.9157391	0.4605519	0.1290000	0.9186833	0.1274265	0.0230000	0.8880651	-0.0021935	0.2179000	0.9535240	0.0145023	0.1804000	0.9131942	0.1125904	-0.0119000	0.8562936	1.5134061	0.0008000	0.8550536	1.8042463	0.0655000	0.8100056	1.6302660	0.1076000	0.6750207	1.3908192	-0.0127500	0.6276170	1.1124207	0.0702000	0.5831817	0.8386139	0.1076000	1.0491049	1.3949067	-0.0127500	1.0897318	1.0989391	0.0702000	1.1122249	0.8204229	0.1076000
4	0.0500000	0.8313688	0.8601065	0.0301000	0.7403526	0.8491162	0.0301000	0.7452891	0.4678370	0.1290000	0.7660744	0.1302713	0.0230000	0.7743546	-0.0032145	0.2179000	0.7181520	0.0205440	0.1804000	0.7852392	0.1058869	-0.0119000	0.9237059	0.8451372	0.0301000	0.9156879	0.4605922	0.1290000	0.9190729	0.1278982	0.0230000	0.8886399	-0.0015368	0.2179000	0.9534744	0.0146829	0.1804000	0.9138220	0.1119487	-0.0119000	0.8565028	1.5133014	0.0008000	0.8554791	1.8037100	0.0655000	0.8097162	1.6306009	0.1076000	0.6757936	1.3912135	-0.0127500	0.6279108	1.1118033	0.0702000	0.5830510	0.8390556	0.1076000	1.0488167	1.3950829	-0.0127500	1.0891531	1.0984558	0.0702000	1.1125404	0.8203661	0.1076000
5	0.0666667	0.8311966	0.8604410	0.0301000	0.7401810	0.8481330	0.0301000	0.7451182	0.4679890	0.1290000	0.7660443	0.1303866	0.0230000	0.7735324	-0.0032206	0.2179000	0.7169425	0.0204285	0.1804000	0.7846948	0.1059261	-0.0119000	0.9231450	0.8441083	0.0301000	0.9156963	0.4607317	0.1290000	0.9194035	0.1284034	0.0230000	0.8892509	-0.0010003	0.2179000	0.9535299	0.0148645	0.1804000	0.9143391	0.1115142	-0.0119000	0.8567138	1.5132635	0.0008000	0.8558316	1.8031846	0.0655000	0.8095159	1.6308412	0.1076000	0.6764524	1.3915885	-0.0127500	0.6281227	1.1113262	0.0702000	0.5829124	0.8394865	0.1076000	1.0485666	1.3952847	-0.0127500	1.0886850	1.0980987	0.0702000	1.1127990	0.8204036	0.1076000
6	0.0833333	0.8310998	0.8606843	0.0301000	0.7400725	0.8473223	0.0301000	0.7449461	0.4681886	0.1290000	0.7659901	0.1305598	0.0230000	0.7728725	-0.0032612	0.2179000	0.7160014	0.0203318	0.1804000	0.7842298	0.1059837	-0.0119000	0.9227718	0.8432723	0.0301000	0.9157661	0.4609852	0.1290000	0.9196749	0.1289334	0.0230000	0.8898772	-0.0005677	0.2179000	0.9536808	0.0150522	0.1804000	0.9147520	0.1112895	-0.0119000	0.8569199	1.5133079	0.0008000	0.8561037	1.8026694	0.0655000	0.8094087	1.6309927	0.1076000	0.6770024	1.3919488	-0.0127500	0.6282544	1.1109847	0.0702000	0.5827780	0.8399010	0.1076000	1.0483607	1.3955088	-0.0127500	1.0883290	1.0978500	0.0702000	1.1130061	0.8205357	0.1076000
7	0.1000000	0.8310690	0.8608425	0.0301000	0.7400172	0.8466760	0.0301000	0.7447794	0.4684200	0.1290000	0.7659224	0.1307998	0.0230000	0.7723754	-0.0033418	0.2179000	0.7153237	0.0202527	0.1804000	0.7838427	0.1060719	-0.0119000	0.9225614	0.8426196	0.0301000	0.9158877	0.4613242	0.1290000	0.9198933	0.1294787	0.0230000	0.8904836	-0.0002240	0.2179000	0.9538983	0.0152461	0.1804000	0.9150782	0.1112729	-0.0119000	0.8571133	1.5134360	0.0008000	0.8562937	1.8021548	0.0655000	0.8093915	1.6310638	0.1076000	0.6774636	1.3922973	-0.0127500	0.6283130	1.1107638	0.0702000	0.5826525	0.8403066	0.1076000	1.0481997	1.3957554	-0.0127500	1.0880806	1.0976834	0.0702000	1.1131736	0.8207641	0.1076000
8	0.1166667	0.8310935	0.8609147	0.0301000	0.7400002	0.8461734	0.0301000	0.7446333	0.4686501	0.1290000	0.7658564	0.1311075	0.0230000	0.7720278	-0.0034600	0.2179000	0.7148823	0.0201969	0.1804000	0.7835280	0.1061985	-0.0119000	0.9224831	0.8421200	0.0301000	0.9160460	0.4617038	0.1290000	0.9200682	0.1300308	0.0230000	0.8910360	0.0000439	0.2179000	0.9541468	0.0154410	0.1804000	0.9153423	0.1114454	-0.0119000	0.8572882	1.5136355	0.0008000	0.8564009	1.8016267	0.0655000	0.8094531	1.6310647	0.1076000	0.6778590	1.3926319	-0.0127500	0.6283130	1.1106368	0.0702000	0.5825345	0.8407140	0.1076000	1.0480780	1.3960263	-0.0127500	1.0879275	1.0975745	0.0702000	1.1133169	0.8210845	0.1076000
9	0.1333333	0.8311589	0.8609052	0.0301000	0.7400054	0.8458003	0.0301000	0.7445235	0.4688589	0.1290000	0.7658033	0.1314697	0.0230000	0.7718070	-0.0036008	0.2179000	0.7146298	0.0201738	0.1804000	0.7832778	0.1063625	-0.0119000	0.9225031	0.8417423	0.0301000	0.9162259	0.4620886	0.1290000	0.9202058	0.1305749	0.0230000	0.8915135	0.0002533	0.2179000	0.9543949	0.0156298	0.1804000	0.9155642	0.1117559	-0.0119000	0.8574424	1.5138872	0.0008000	0.8564229	1.8010748	0.0655000	0.8095752	1.6310082	0.1076000	0.6782103	1.3929482	-0.0127500	0.6282762	1.1105695	0.0702000	0.5824250	0.8411282	0.1076000	1.0479880	1.3963225	-0.0127500	1.0878512	1.0975018	0.0702000	1.1134495	0.8214794	0.1076000
10	0.1500000	0.8312528	0.8608173	0.0301000	0.7400276	0.8455380	0.0301000	0.7444630	0.4690338	0.1290000	0.7657679	0.1318628	0.0230000	0.7716900	-0.0037463	0.2179000	0.7145156	0.0201863	0.1804000	0.7830825	0.1065569	-0.0119000	0.9225904	0.8414556	0.0301000	0.9164132	0.4624512	0.1290000	0.9203068	0.1310914	0.0230000	0.8919046	0.0004178	0.2179000	0.9546169	0.0158007	0.1804000	0.9157483	0.1121375	-0.0119000	0.8575785	1.5141730	0.0008000	0.8563585	1.8004956	0.0655000	0.8097379	1.6309074	0.1076000	0.6785381	1.3932414	-0.0127500	0.6282240	1.1105316	0.0702000	0.5823264	0.8415502	0.1076000	1.0479228	1.3966415	-0.0127500	1.0878343	1.0974437	0.0702000	1.1135801	0.8219235	0.1076000
